<svg width="40" height="40" viewBox="0 0 40 40" fill="none" xmlns="http://www.w3.org/2000/svg">
<g clip-path="url(#clip0)">
<path d="M22.3447 20.0108L39.491 2.86444C40.1528 2.22531 40.1712 1.17077 39.532 0.508989C38.8929 -0.152788 37.8383 -0.171138 37.1766 0.467994C37.1627 0.481366 37.149 0.495031 37.1356 0.508989L19.9891 17.6553L2.84274 0.508891C2.18096 -0.130241 1.12641 -0.111891 0.487279 0.549886C-0.136236 1.19546 -0.136236 2.21887 0.487279 2.86444L17.6336 20.0108L0.487279 37.1572C-0.163078 37.8076 -0.163078 38.8622 0.487279 39.5126C1.13773 40.1629 2.19228 40.1629 2.84274 39.5126L19.9891 22.3663L37.1355 39.5126C37.7972 40.1517 38.8518 40.1334 39.4909 39.4716C40.1143 38.826 40.1143 37.8026 39.4909 37.1572L22.3447 20.0108Z" fill="white"/>
</g>
<defs>
<clipPath id="clip0">
<rect width="40" height="40" fill="white"/>
</clipPath>
</defs>
</svg>
