<svg width="85" height="85" viewBox="0 0 85 85" fill="none" xmlns="http://www.w3.org/2000/svg">
<circle cx="42.5" cy="42.5" r="42.5" fill="black" fill-opacity="0.1"/>
<path d="M43.7584 42.0082L56.6181 29.1484C57.1145 28.6691 57.1282 27.8782 56.6489 27.3818C56.1695 26.8855 55.3786 26.8717 54.8823 27.3511C54.8719 27.3611 54.8617 27.3714 54.8516 27.3818L41.9917 40.2416L29.1319 27.3818C28.6356 26.9024 27.8447 26.9162 27.3653 27.4125C26.8977 27.8967 26.8977 28.6643 27.3653 29.1484L40.2251 42.0082L27.3653 54.868C26.8776 55.3558 26.8776 56.1467 27.3653 56.6346C27.8532 57.1223 28.6441 57.1223 29.1319 56.6346L41.9917 43.7748L54.8515 56.6346C55.3478 57.1139 56.1387 57.1001 56.6181 56.6038C57.0856 56.1196 57.0856 55.3521 56.6181 54.868L43.7584 42.0082Z" fill="white"/>
</svg>
