<svg width="20" height="21" viewBox="0 0 20 21" fill="none" xmlns="http://www.w3.org/2000/svg">
<g clip-path="url(#clip0)">
<path d="M14.5893 12.7335L14.5818 12.7974C12.7493 11.8627 12.5576 11.7382 12.3209 12.1015C12.1568 12.3531 11.6784 12.9237 11.5343 13.0925C11.3884 13.2588 11.2434 13.2716 10.9959 13.1565C10.7459 13.0286 9.94345 12.7599 8.99345 11.89C8.25345 11.212 7.75678 10.3804 7.61011 10.1246C7.36595 9.693 7.87678 9.63159 8.34178 8.73096C8.42511 8.55186 8.38261 8.41114 8.32095 8.28406C8.25845 8.15613 7.76095 6.90241 7.55261 6.40263C7.35261 5.90455 7.14678 5.96767 6.99261 5.96767C6.51261 5.92502 6.16178 5.93185 5.85261 6.26105C4.50761 7.77404 4.84678 9.3348 5.99761 10.9945C8.25928 14.0239 9.46428 14.5816 11.6676 15.3561C12.2626 15.5497 12.8051 15.5224 13.2343 15.4593C13.7126 15.3816 14.7068 14.8443 14.9143 14.2431C15.1268 13.6418 15.1268 13.1429 15.0643 13.0277C15.0026 12.9126 14.8393 12.8486 14.5893 12.7335Z" fill="white"/>
<path d="M17.1 3.47292C10.6925 -2.86646 0.0883333 1.73136 0.0841667 10.6746C0.0841667 12.4622 0.541667 14.2054 1.41333 15.7449L0 21.0002L5.27917 19.5913C11.8667 23.2331 19.9967 18.3973 20 10.6797C20 7.97096 18.9667 5.42173 17.0875 3.50618L17.1 3.47292ZM18.335 10.6515C18.33 17.1615 11.3475 21.2271 5.825 17.9043L5.525 17.7218L2.4 18.5534L3.2375 15.4447L3.03833 15.1248C-0.398333 9.52574 3.55 2.20812 10.06 2.20812C12.2717 2.20812 14.3475 3.09084 15.9108 4.68997C17.4733 6.27545 18.335 8.39995 18.335 10.6515Z" fill="white"/>
</g>
<defs>
<clipPath id="clip0">
<rect width="20" height="20.4689" fill="white" transform="translate(0 0.53125)"/>
</clipPath>
</defs>
</svg>
