<svg width="20" height="21" viewBox="0 0 20 21" fill="none" xmlns="http://www.w3.org/2000/svg">
<path d="M14.5893 12.2021L14.5818 12.2661C12.7493 11.3313 12.5576 11.2068 12.3209 11.5701C12.1568 11.8217 11.6784 12.3923 11.5343 12.5612C11.3884 12.7275 11.2434 12.7403 10.9959 12.6251C10.7459 12.4972 9.94345 12.2285 8.99345 11.3586C8.25345 10.6806 7.75678 9.84904 7.61011 9.59318C7.36595 9.16163 7.87678 9.10022 8.34178 8.19959C8.42511 8.02049 8.38261 7.87977 8.32095 7.75269C8.25845 7.62476 7.76095 6.37104 7.55261 5.87126C7.35261 5.37318 7.14678 5.43629 6.99261 5.43629C6.51261 5.39365 6.16178 5.40047 5.85261 5.72968C4.50761 7.24267 4.84678 8.80342 5.99761 10.4631C8.25928 13.4925 9.46428 14.0503 11.6676 14.8247C12.2626 15.0183 12.8051 14.991 13.2343 14.9279C13.7126 14.8503 14.7068 14.313 14.9143 13.7117C15.1268 13.1104 15.1268 12.6115 15.0643 12.4963C15.0026 12.3812 14.8393 12.3172 14.5893 12.2021Z" fill="#F46244"/>
<path d="M17.1 2.94155C10.6925 -3.39783 0.0883333 1.19999 0.0841667 10.1432C0.0841667 11.9308 0.541667 13.6741 1.41333 15.2135L0 20.4689L5.27917 19.0599C11.8667 22.7017 19.9967 17.8659 20 10.1483C20 7.43959 18.9667 4.89036 17.0875 2.97481L17.1 2.94155ZM18.335 10.1202C18.33 16.6301 11.3475 20.6957 5.825 17.373L5.525 17.1904L2.4 18.022L3.2375 14.9133L3.03833 14.5935C-0.398333 8.99437 3.55 1.67674 10.06 1.67674C12.2717 1.67674 14.3475 2.55946 15.9108 4.1586C17.4733 5.74408 18.335 7.86858 18.335 10.1202Z" fill="#F46244"/>
</svg>
