<svg width="20" height="21" viewBox="0 0 20 21" fill="none" xmlns="http://www.w3.org/2000/svg">
<g clip-path="url(#clip0)">
<path d="M14.5893 12.2022L14.5818 12.2662C12.7493 11.3315 12.5576 11.2069 12.3209 11.5703C12.1568 11.8219 11.6784 12.3924 11.5343 12.5613C11.3884 12.7276 11.2434 12.7404 10.9959 12.6253C10.7459 12.4973 9.94345 12.2287 8.99345 11.3587C8.25345 10.6807 7.75678 9.84916 7.61011 9.5933C7.36595 9.16175 7.87678 9.10034 8.34178 8.19971C8.42511 8.02061 8.38261 7.87989 8.32095 7.75281C8.25845 7.62488 7.76095 6.37116 7.55261 5.87138C7.35261 5.3733 7.14678 5.43642 6.99261 5.43642C6.51261 5.39377 6.16178 5.4006 5.85261 5.7298C4.50761 7.24279 4.84678 8.80355 5.99761 10.4632C8.25928 13.4926 9.46428 14.0504 11.6676 14.8248C12.2626 15.0184 12.8051 14.9911 13.2343 14.928C13.7126 14.8504 14.7068 14.3131 14.9143 13.7118C15.1268 13.1105 15.1268 12.6116 15.0643 12.4965C15.0026 12.3813 14.8393 12.3174 14.5893 12.2022Z" fill="#4B575C"/>
<path d="M17.1 2.94167C10.6925 -3.39771 0.0883333 1.20011 0.0841667 10.1433C0.0841667 11.9309 0.541667 13.6742 1.41333 15.2136L0 20.469L5.27917 19.0601C11.8667 22.7018 19.9967 17.866 20 10.1484C20 7.43971 18.9667 4.89048 17.0875 2.97493L17.1 2.94167ZM18.335 10.1203C18.33 16.6302 11.3475 20.6959 5.825 17.3731L5.525 17.1906L2.4 18.0221L3.2375 14.9134L3.03833 14.5936C-0.398333 8.99449 3.55 1.67687 10.06 1.67687C12.2717 1.67687 14.3475 2.55959 15.9108 4.15872C17.4733 5.7442 18.335 7.8687 18.335 10.1203Z" fill="#4B575C"/>
</g>
<defs>
<clipPath id="clip0">
<rect width="20" height="20.4689" fill="white"/>
</clipPath>
</defs>
</svg>
